<?xml version="1.0" standalone="no"?>
<!DOCTYPE svg PUBLIC "-//W3C//DTD SVG 20010904//EN"
 "http://www.w3.org/TR/2001/REC-SVG-20010904/DTD/svg10.dtd">
<svg version="1.0" xmlns="http://www.w3.org/2000/svg"
 width="3240.000000pt" height="3240.000000pt" viewBox="0 0 3240.000000 3240.000000"
 preserveAspectRatio="xMidYMid meet">

<g transform="translate(0.000000,3240.000000) scale(0.100000,-0.100000)"
fill="#000000" stroke="none">
<path d="M7864 21740 c-333 -87 -720 -460 -1229 -1184 -160 -228 -241 -365
-400 -676 -83 -162 -177 -335 -209 -385 -66 -101 -126 -220 -126 -249 0 -18 1
-19 20 -1 13 12 -3 -30 -44 -116 -35 -74 -71 -155 -81 -182 -23 -61 -30 -56
-9 7 9 26 14 50 11 53 -7 6 -63 -80 -99 -152 -50 -98 -181 -403 -253 -585
-129 -326 -149 -402 -301 -1130 -79 -382 -84 -603 -19 -898 27 -121 72 -231
110 -266 12 -12 39 -52 59 -91 l38 -70 -31 35 c-17 19 -31 31 -31 28 0 -4 17
-27 38 -51 21 -24 70 -87 109 -139 161 -214 297 -328 457 -384 42 -15 196 -22
216 -9 6 4 -18 21 -57 39 -133 65 -260 181 -394 361 -38 52 -74 97 -79 100 -6
4 -8 10 -5 15 6 11 -84 170 -96 170 -18 0 -72 117 -95 207 -39 155 -54 277
-54 438 0 183 22 340 91 659 28 127 57 267 65 311 22 114 60 263 101 390 95
297 366 919 433 995 18 21 21 22 15 5 -16 -46 -26 -87 -22 -91 2 -2 17 26 32
63 16 38 57 129 92 203 42 92 55 125 38 105 -19 -22 -25 -26 -25 -13 0 31 46
122 117 234 38 60 134 235 213 389 159 310 208 394 347 600 268 394 580 775
792 968 150 137 350 258 482 292 35 9 66 19 68 21 2 2 -45 4 -105 3 -73 0
-133 -6 -180 -19z"/>
<path d="M16724 21740 c-197 -51 -438 -220 -665 -465 -165 -179 -468 -573
-646 -840 -137 -205 -183 -285 -327 -572 -68 -136 -155 -295 -192 -353 -74
-117 -134 -234 -134 -264 0 -19 1 -19 20 -1 13 12 -2 -29 -43 -116 -105 -223
-102 -217 -81 -136 5 19 3 19 -21 -8 -72 -81 -341 -705 -443 -1025 -43 -138
-62 -217 -152 -644 -77 -367 -90 -448 -97 -626 -12 -291 56 -608 151 -716 16
-17 43 -60 63 -95 l34 -64 -31 35 c-18 19 -27 26 -22 14 6 -11 18 -27 27 -34
9 -7 53 -63 99 -124 46 -61 105 -135 132 -165 95 -106 239 -205 345 -240 41
-13 163 -17 197 -7 20 7 15 12 -45 40 -129 63 -259 180 -379 343 -32 43 -67
88 -78 101 -12 13 -21 29 -21 35 0 18 -85 167 -95 167 -22 0 -73 118 -100 227
-45 186 -53 263 -47 471 5 202 19 294 87 602 21 96 48 225 60 285 48 244 103
428 206 692 119 305 285 665 332 723 l21 25 -15 -50 c-21 -72 -12 -78 16 -9
13 32 54 124 92 204 55 118 62 138 38 110 l-29 -35 10 40 c15 54 39 101 118
225 37 58 130 229 208 380 158 308 200 382 316 555 272 405 619 836 814 1010
167 149 376 274 511 305 28 7 52 14 52 16 0 13 -223 1 -286 -16z"/>
<path d="M11983 21665 c-81 -41 -168 -167 -248 -362 -40 -95 -50 -110 -122
-181 -68 -66 -88 -94 -140 -197 -34 -66 -97 -205 -141 -310 -43 -104 -143
-332 -222 -505 -157 -346 -300 -676 -300 -691 0 -6 5 -7 10 -4 10 6 -11 -52
-49 -135 -13 -28 -18 -35 -15 -17 13 61 -34 17 -89 -83 -79 -145 -236 -550
-266 -687 -28 -128 -73 -262 -163 -488 -75 -189 -119 -351 -99 -365 4 -3 4
-16 0 -30 -4 -14 -7 -18 -8 -10 -2 36 -22 -15 -56 -142 -27 -103 -54 -174
-111 -292 -125 -260 -189 -474 -309 -1036 -36 -168 -81 -363 -100 -433 -19
-70 -35 -129 -35 -131 0 -1 13 -1 29 2 21 3 35 -2 51 -18 21 -21 22 -29 17
-124 -6 -115 -35 -235 -101 -418 l-44 -122 18 -37 c24 -46 70 -92 123 -124 76
-44 215 -65 302 -46 29 7 29 7 -23 25 -126 43 -201 146 -222 306 -19 139 5
296 91 610 27 102 84 340 125 530 120 559 170 725 304 1015 48 105 95 222 104
260 32 133 48 178 56 164 6 -9 10 -6 15 13 4 15 4 31 1 37 -9 15 12 137 36
201 11 30 46 120 78 200 69 174 122 336 150 458 46 208 258 710 326 773 l26
24 -6 -35 c-7 -35 -7 -35 8 -9 15 25 76 175 76 185 0 3 -4 2 -10 -1 -5 -3 -10
-4 -10 0 0 7 211 485 368 835 61 135 144 326 186 425 109 257 162 347 254 437
61 59 81 86 96 129 31 89 125 264 177 329 l49 60 -29 15 c-56 28 -101 28 -158
0z"/>
<path d="M13972 21619 c-128 -17 -244 -75 -387 -194 -95 -79 -804 -801 -912
-930 -77 -91 -118 -161 -108 -188 4 -8 -12 -38 -36 -68 -70 -90 -72 -88 -12 9
17 26 17 26 0 13 -10 -8 -37 -49 -60 -90 -41 -75 -107 -160 -378 -486 -159
-191 -309 -388 -392 -515 -44 -67 -73 -132 -138 -305 -119 -323 -249 -728
-238 -740 2 -2 51 87 109 198 204 392 418 749 598 996 93 128 174 229 392 491
81 96 172 209 203 250 32 41 69 87 82 102 64 72 99 129 101 163 1 55 59 128
281 359 415 434 709 724 793 787 82 60 212 129 244 129 9 0 16 5 16 10 0 6
-12 10 -27 10 -16 0 -37 2 -48 4 -11 2 -49 0 -83 -5z"/>
<path d="M20110 21533 c-160 -16 -327 -67 -515 -158 -169 -81 -320 -183 -437
-293 -250 -237 -340 -355 -367 -482 -11 -50 -68 -168 -112 -231 -10 -15 -48
-75 -84 -134 l-65 -108 48 -30 c26 -16 64 -45 86 -64 21 -19 41 -31 45 -26 4
4 18 35 30 68 27 69 38 88 136 245 94 150 130 222 146 294 24 109 146 267 351
455 232 213 529 372 812 436 87 19 95 23 67 28 -33 7 -75 7 -141 0z"/>
<path d="M8765 21205 c-5 -2 -23 -6 -38 -10 l-29 -6 40 -43 c42 -45 65 -83 76
-126 7 -24 6 -24 -19 5 -15 17 -23 21 -17 10 5 -11 31 -90 56 -175 59 -194 76
-241 88 -234 5 3 6 15 3 27 -3 12 5 -1 18 -28 48 -101 110 -126 208 -84 48 21
58 32 40 44 -5 3 -17 29 -26 58 -22 67 -32 77 -28 29 l3 -37 -14 31 c-8 17
-37 104 -64 193 -40 130 -46 158 -31 145 26 -24 24 -3 -6 57 -36 70 -90 127
-133 139 -35 9 -105 12 -127 5z"/>
<path d="M17625 21205 c-5 -2 -23 -6 -38 -10 l-29 -6 40 -43 c42 -45 65 -83
76 -126 7 -24 6 -24 -19 5 -16 17 -23 22 -17 10 6 -11 29 -83 51 -160 53 -178
81 -256 91 -250 5 3 6 15 4 28 -3 12 6 -1 19 -28 31 -66 77 -105 123 -105 36
0 137 38 131 49 -17 33 -47 105 -47 116 0 8 -3 16 -8 19 -4 2 -6 -14 -5 -37
l3 -42 -16 40 c-8 22 -37 111 -63 198 -40 132 -45 154 -28 140 19 -18 19 -17
12 7 -26 86 -98 174 -153 190 -35 9 -105 12 -127 5z"/>
<path d="M8089 21099 l-24 -20 28 17 c15 9 27 18 27 20 0 8 -8 4 -31 -17z"/>
<path d="M16949 21099 l-24 -20 28 17 c15 9 27 18 27 20 0 8 -8 4 -31 -17z"/>
<path d="M20285 21108 c-16 -6 -31 -12 -33 -13 -1 -1 10 -26 25 -55 24 -46 27
-64 27 -139 -1 -95 -54 -435 -64 -407 -4 12 -17 -20 -35 -85 -95 -345 -243
-721 -660 -1674 -124 -285 -210 -496 -375 -925 -46 -118 -177 -435 -293 -705
-268 -627 -345 -819 -418 -1036 -57 -170 -119 -405 -133 -502 l-7 -47 37 25
c44 30 77 32 104 5 42 -42 21 -221 -54 -454 -24 -75 -32 -115 -26 -126 17 -33
93 -92 152 -120 72 -34 159 -46 218 -30 l43 12 -54 29 c-167 92 -233 255 -210
518 19 208 79 471 166 721 65 185 177 463 388 955 217 507 277 655 402 985 84
223 201 500 404 962 276 629 413 979 521 1333 27 88 49 151 50 141 1 -47 13 4
41 170 24 139 30 201 27 276 -4 105 -14 129 -71 172 -32 23 -126 31 -172 14z
m-185 -1230 c-103 -358 -198 -607 -387 -1009 -71 -150 -167 -360 -213 -466
-46 -106 -85 -191 -87 -189 -4 4 128 331 231 574 46 108 129 319 185 467 107
285 304 775 309 770 2 -2 -15 -68 -38 -147z m-699 -1705 c-12 -20 -14 -14 -5
12 4 9 9 14 11 11 3 -2 0 -13 -6 -23z"/>
<path d="M7827 20871 c-134 -138 -264 -309 -377 -495 -53 -88 5 -17 91 112
113 168 216 299 328 415 46 48 82 87 79 87 -3 0 -57 -54 -121 -119z"/>
<path d="M16689 20873 c-137 -141 -250 -287 -359 -465 -68 -111 -20 -53 87
104 106 157 193 267 297 376 43 45 77 82 74 82 -2 0 -47 -44 -99 -97z"/>
<path d="M13893 20870 c-24 -10 -43 -22 -43 -25 0 -4 7 -32 16 -63 13 -45 16
-83 11 -187 -21 -474 -272 -1047 -737 -1685 -320 -439 -637 -771 -967 -1014
-51 -37 -93 -70 -93 -72 0 -3 53 31 119 75 192 129 503 433 775 759 38 45 71
82 73 82 7 0 -85 -115 -183 -229 -442 -515 -892 -875 -1429 -1144 -98 -49
-134 -72 -143 -92 -7 -14 -12 -28 -12 -30 0 -2 30 10 68 27 99 45 284 119 288
115 2 -2 -43 -29 -101 -61 -58 -31 -105 -59 -105 -61 0 -17 348 157 519 260
307 185 565 388 847 670 192 191 351 373 486 552 108 143 150 203 145 203 -3
0 -29 -33 -59 -72 -107 -146 -441 -533 -529 -613 -18 -16 16 24 76 90 452 503
804 1028 1005 1500 185 435 245 912 127 1011 -36 30 -94 32 -154 4z m-813
-2094 c0 -2 -8 -10 -17 -17 -16 -13 -17 -12 -4 4 13 16 21 21 21 13z m-320
-589 c0 -2 -10 -12 -22 -23 l-23 -19 19 23 c18 21 26 27 26 19z m-128 -118
c-46 -43 -111 -97 -145 -119 -34 -23 -49 -30 -33 -18 16 13 79 67 140 120 61
53 113 97 116 97 3 0 -32 -36 -78 -80z"/>
<path d="M22563 20805 c-78 -17 -203 -82 -308 -158 -103 -76 -324 -300 -491
-497 -72 -85 -171 -199 -220 -254 -337 -374 -584 -687 -911 -1156 -94 -135
-111 -168 -146 -275 -33 -100 -137 -478 -133 -482 1 -1 42 59 91 135 452 700
905 1314 1245 1687 40 44 154 175 253 290 200 234 435 474 542 553 72 54 235
142 263 142 11 0 13 3 6 10 -17 17 -126 20 -191 5z"/>
<path d="M22810 20364 c-8 -3 -41 -17 -73 -32 -43 -19 -59 -32 -64 -51 -9 -40
-145 -382 -206 -521 -135 -308 -222 -475 -452 -870 -456 -784 -703 -1289 -889
-1813 -124 -348 -230 -784 -242 -997 -14 -246 51 -440 204 -601 65 -70 161
-129 209 -129 27 0 88 23 96 37 3 5 -32 48 -78 95 -63 66 -93 105 -124 169
-65 133 -76 188 -75 379 0 151 3 180 37 342 148 703 457 1432 1020 2398 350
602 487 879 686 1392 46 120 53 181 22 198 -20 10 -45 12 -71 4z"/>
<path d="M7322 20148 c-32 -51 -81 -131 -107 -178 -26 -47 -50 -88 -52 -92 -2
-5 -2 -8 0 -8 5 0 119 181 165 263 12 20 31 53 43 72 42 71 9 32 -49 -57z"/>
<path d="M16182 20148 c-33 -51 -81 -131 -107 -178 -26 -47 -50 -88 -52 -92
-2 -5 -2 -8 0 -8 3 0 14 15 25 33 11 17 48 79 84 137 83 136 120 200 115 200
-3 0 -32 -42 -65 -92z"/>
<path d="M9165 20167 c-116 -39 -177 -101 -235 -240 -25 -60 -49 -96 -110
-163 -65 -71 -92 -112 -157 -237 -119 -233 -792 -1239 -1361 -2037 -161 -225
-353 -512 -347 -518 2 -3 12 1 22 9 42 33 -229 -268 -442 -491 -60 -63 -140
-149 -177 -191 -38 -41 -106 -108 -152 -148 -60 -52 -83 -78 -79 -90 12 -32
37 -51 67 -51 76 1 179 74 351 252 329 338 788 844 662 729 -15 -14 -27 -21
-27 -17 0 12 176 270 430 631 600 851 1161 1693 1278 1917 65 123 98 173 154
235 55 60 82 102 119 180 51 108 109 178 169 203 20 8 28 16 21 23 -16 16
-142 18 -186 4z"/>
<path d="M18013 20162 c-109 -39 -166 -99 -222 -233 -24 -58 -50 -96 -111
-164 -64 -71 -93 -115 -157 -239 -115 -223 -919 -1424 -1404 -2096 -113 -157
-310 -453 -304 -458 2 -3 12 1 22 9 29 23 -73 -93 -243 -277 -380 -410 -449
-483 -527 -552 -85 -75 -91 -89 -59 -126 13 -14 27 -17 62 -14 60 6 137 55
241 155 128 121 718 756 762 818 l21 30 -27 -24 c-15 -14 -27 -21 -27 -17 0
11 202 312 320 476 555 775 1260 1828 1385 2068 64 122 95 171 154 235 56 63
85 106 121 182 55 118 85 156 152 194 59 34 52 42 -41 48 -47 2 -81 -2 -118
-15z"/>
<path d="M14576 20078 c-106 -416 -322 -840 -651 -1277 -115 -153 -235 -295
-411 -486 -65 -72 -159 -177 -208 -235 -50 -58 -116 -135 -149 -172 -32 -38
-55 -68 -50 -68 25 0 442 429 620 636 207 241 426 546 546 759 76 136 144 290
205 465 51 148 126 424 120 441 -2 6 -12 -23 -22 -63z"/>
<path d="M20343 20002 c-23 -59 -71 -179 -108 -267 -36 -88 -116 -293 -177
-455 -60 -162 -147 -382 -193 -490 -145 -342 -339 -829 -333 -836 2 -1 43 93
92 209 89 211 223 510 374 832 101 214 179 411 253 637 59 179 142 469 136
475 -2 1 -22 -46 -44 -105z"/>
<path d="M24428 19788 c-153 -14 -323 -99 -536 -267 -146 -116 -542 -513 -693
-696 -194 -234 -422 -535 -547 -722 -43 -64 -50 -79 -30 -67 7 4 8 3 4 -5 -4
-6 -11 -9 -15 -6 -5 2 -21 -14 -35 -38 l-27 -42 31 35 32 35 -26 -40 c-15 -22
-32 -40 -39 -40 -6 -1 -11 -6 -10 -13 2 -7 -47 -89 -109 -184 -117 -180 -149
-248 -273 -570 -67 -174 -185 -520 -185 -541 0 -7 17 17 39 53 21 36 90 154
154 262 65 108 117 200 117 203 0 3 -5 3 -12 -1 -7 -4 -8 -3 -4 5 4 6 11 9 16
6 5 -3 14 3 19 14 14 26 14 34 -1 25 -7 -4 -8 -3 -4 5 4 6 11 9 16 6 12 -7 33
32 25 45 -4 6 -1 9 7 8 7 -2 12 5 12 14 -1 10 1 16 5 14 4 -3 20 16 36 42 103
167 233 370 327 510 59 89 108 165 108 168 0 3 -5 2 -12 -2 -7 -4 -8 -3 -4 5
4 6 11 9 15 7 4 -3 17 7 28 22 34 47 36 58 3 22 -44 -48 48 90 169 255 316
433 610 773 879 1018 300 275 443 372 637 432 l70 22 -56 4 c-30 2 -89 1 -131
-3z m-898 -641 c0 -1 -28 -29 -62 -62 l-63 -60 60 63 c55 58 65 67 65 59z"/>
<path d="M18637 19473 c-19 -27 -45 -57 -58 -68 l-22 -20 12 22 c23 44 10 36
-24 -15 l-35 -52 20 -40 c30 -58 90 -114 144 -135 39 -15 53 -16 84 -6 20 6
45 18 56 26 17 13 17 16 -17 57 -44 54 -83 136 -98 208 -7 30 -15 59 -19 63
-4 5 -23 -13 -43 -40z"/>
<path d="M24493 19320 l-42 -19 5 -48 c5 -39 -2 -71 -35 -174 -45 -140 -53
-186 -20 -129 27 47 23 33 -51 -167 -60 -161 -85 -215 -61 -127 32 114 -23 14
-286 -521 -183 -371 -249 -516 -313 -690 -119 -319 -182 -473 -330 -810 -73
-165 -150 -345 -173 -400 -65 -160 -93 -288 -66 -297 7 -2 6 -19 -5 -53 -13
-39 -15 -43 -13 -17 7 62 -14 16 -24 -54 -6 -38 -17 -96 -25 -129 -121 -492
-151 -705 -141 -1009 7 -208 32 -362 87 -526 143 -428 435 -766 732 -846 65
-18 225 -29 264 -19 26 6 22 9 -44 26 -139 35 -276 126 -395 261 -31 36 -57
68 -57 72 0 3 325 6 723 6 l723 0 33 34 c18 19 30 39 27 45 -5 8 -238 11 -791
11 l-784 0 -25 33 c-60 79 -175 332 -200 440 l-6 27 255 0 255 0 0 38 c0 20 3
47 6 60 l6 22 -275 0 -275 0 -6 28 c-29 135 -35 477 -11 672 22 173 39 267 90
475 24 99 49 214 55 255 6 41 13 77 17 80 3 3 3 -10 1 -28 -7 -47 7 -27 26 38
9 33 11 56 6 58 -14 5 -12 68 4 127 19 72 70 197 228 560 157 360 226 527 332
813 94 252 121 312 369 807 197 393 251 494 226 418 -6 -17 -9 -41 -7 -53 2
-12 34 63 74 172 83 225 94 260 60 198 -34 -61 -32 -32 4 76 43 124 53 180 39
221 -20 61 -104 81 -186 43z m-710 -2012 c2 -7 -1 -33 -9 -58 -7 -25 -29 -101
-49 -169 -45 -156 -106 -308 -233 -581 -171 -369 -342 -774 -342 -810 0 -7 -3
-11 -6 -8 -6 7 25 115 93 323 59 181 86 250 174 436 129 277 197 446 244 606
42 144 97 273 115 273 4 0 10 -6 13 -12z m-737 -1985 c-5 -12 -10 -13 -17 -6
-8 8 -7 18 2 34 12 21 14 22 17 6 2 -10 1 -25 -2 -34z"/>
<path d="M23725 19128 c-114 -116 -173 -183 -142 -159 20 16 261 271 255 271
-2 0 -53 -51 -113 -112z"/>
<path d="M11487 18853 c-210 -353 -277 -489 -355 -713 -76 -221 -192 -580
-191 -594 0 -6 24 57 53 139 113 320 234 608 397 944 56 116 106 208 110 205
5 -3 6 3 2 12 -4 10 -2 15 3 11 10 -6 89 141 80 150 -2 3 -47 -67 -99 -154z"/>
<path d="M23506 18889 c-21 -22 -36 -42 -34 -44 2 -3 21 16 42 40 46 56 42 58
-8 4z"/>
<path d="M8290 17972 c-46 -75 -156 -251 -243 -391 -87 -139 -163 -264 -168
-277 -4 -13 -18 -105 -29 -204 -11 -99 -34 -255 -51 -348 -52 -285 -58 -341
-49 -417 5 -38 11 -80 14 -92 3 -13 1 -23 -5 -23 -5 0 -9 -62 -9 -147 0 -103
-6 -183 -20 -262 -30 -173 -35 -287 -16 -427 39 -300 138 -541 299 -733 71
-85 135 -135 247 -195 121 -64 210 -87 360 -93 136 -6 151 5 40 27 -80 17
-237 95 -316 158 -174 140 -321 412 -385 712 -31 143 -33 400 -4 540 13 63 20
145 22 245 1 83 2 166 3 185 1 19 0 85 -1 145 -3 93 4 146 39 340 23 127 50
308 61 403 38 328 177 822 232 822 7 0 8 -12 4 -32 -4 -22 -3 -28 3 -18 13 20
64 200 60 211 -2 4 -41 -53 -88 -129z m-360 -1677 c-7 -162 -17 -269 -39 -406
-16 -102 -33 -234 -37 -295 l-8 -109 -8 90 c-11 126 0 507 18 644 13 98 69
310 79 299 2 -1 -1 -102 -5 -223z"/>
<path d="M17150 17972 c-46 -75 -150 -240 -229 -367 -80 -126 -155 -250 -168
-275 -17 -35 -27 -86 -43 -225 -11 -100 -33 -254 -50 -342 -60 -333 -65 -394
-36 -520 3 -13 1 -23 -5 -23 -5 0 -9 -61 -9 -144 0 -98 -6 -181 -20 -260 -28
-166 -34 -286 -21 -402 35 -305 142 -573 303 -763 71 -84 137 -136 248 -195
121 -64 210 -87 360 -93 136 -6 151 5 41 27 -78 16 -215 81 -296 142 -188 139
-337 407 -406 728 -31 142 -33 399 -4 540 12 62 19 147 21 245 1 83 3 166 4
185 0 19 0 85 -2 145 -2 93 4 146 40 340 22 127 50 309 61 405 38 328 177 820
232 820 7 0 8 -12 4 -32 -4 -23 -3 -28 4 -18 11 18 64 210 59 215 -2 2 -41
-58 -88 -133z m-360 -1677 c-6 -157 -16 -263 -34 -370 -21 -129 -38 -263 -49
-405 -1 -19 -6 26 -11 100 -9 163 8 563 29 670 14 72 64 235 70 228 1 -2 -1
-102 -5 -223z"/>
<path d="M11388 17384 c-27 -8 -52 -23 -59 -35 -6 -12 -7 -20 -2 -18 32 14
113 60 113 64 0 3 -1 5 -2 4 -2 0 -24 -7 -50 -15z"/>
<path d="M23950 17261 c-16 -33 -50 -130 -76 -218 -46 -156 -118 -333 -248
-611 -89 -191 -142 -330 -210 -557 -32 -104 -64 -210 -72 -235 -25 -79 3 -28
35 62 61 175 176 445 354 828 118 256 176 403 222 562 20 67 40 137 45 154 28
89 -7 100 -50 15z"/>
<path d="M10942 16508 c-92 -226 -86 -198 -62 -254 12 -27 52 -103 89 -169 38
-66 137 -253 221 -415 191 -370 281 -531 294 -527 6 2 19 -10 30 -27 49 -82
58 -100 46 -88 -46 41 -39 -35 11 -133 61 -120 216 -347 314 -460 47 -55 144
-177 215 -271 132 -176 192 -239 245 -253 18 -5 29 -14 27 -22 -2 -7 89 -105
203 -216 l206 -203 112 -54 c62 -30 144 -62 184 -70 76 -17 243 -22 243 -8 0
5 -25 14 -56 21 -31 7 -100 35 -153 62 -85 42 -115 65 -232 176 -147 141 -273
270 -275 284 -1 5 -2 13 -3 18 0 5 -15 11 -32 15 -42 8 -146 114 -236 241 -39
55 -125 165 -192 245 -219 262 -415 583 -385 631 4 6 14 3 26 -8 14 -12 6 10
-23 64 -29 54 -46 76 -50 66 -4 -12 -10 -8 -26 18 -45 75 -136 246 -263 494
-73 143 -159 305 -191 361 -128 225 -168 323 -189 461 -11 71 -33 143 -43 143
-3 0 -27 -55 -55 -122z"/>
<path d="M8157 16533 c-3 -4 -18 -51 -35 -104 -54 -167 -66 -285 -66 -634 0
-188 5 -320 11 -334 8 -19 11 6 16 115 3 77 20 226 37 334 24 147 34 248 40
410 4 118 6 216 5 218 -2 2 -5 0 -8 -5z"/>
<path d="M17010 16516 c-55 -146 -77 -261 -91 -476 -12 -172 -5 -551 10 -591
5 -16 10 24 14 121 3 80 13 189 21 243 9 53 23 141 31 195 14 86 37 521 29
531 -2 2 -8 -8 -14 -23z"/>
<path d="M9274 15551 c-38 -23 -83 -78 -163 -199 -91 -136 -223 -292 -314
-370 -37 -31 -38 -35 -27 -62 6 -16 19 -31 27 -34 23 -9 122 23 173 55 89 56
260 248 371 416 63 96 66 103 59 142 -4 22 -13 47 -20 56 -17 21 -69 19 -106
-4z"/>
<path d="M18135 15552 c-42 -26 -86 -78 -161 -192 -94 -144 -231 -306 -323
-383 -31 -26 -32 -30 -21 -57 6 -16 18 -31 26 -34 23 -9 124 22 168 51 99 65
265 250 375 417 53 82 64 106 62 135 -5 77 -59 104 -126 63z"/>
<path d="M23250 15349 c-8 -14 -9 -24 -2 -31 14 -14 32 -1 32 22 0 28 -17 33
-30 9z"/>
<path d="M23352 14994 c-15 -10 -22 -25 -22 -49 0 -62 14 -65 276 -65 l231 0
17 58 c9 32 16 61 16 65 0 4 -111 7 -248 7 -208 0 -251 -2 -270 -16z"/>
<path d="M14396 14479 c-15 -12 -50 -46 -79 -76 -111 -118 -294 -235 -444
-286 -40 -13 -70 -27 -66 -31 12 -11 157 -6 226 9 88 18 237 90 335 159 129
93 126 88 118 149 -8 56 -28 97 -50 97 -7 0 -25 -9 -40 -21z"/>
<path d="M24760 14011 c-25 -10 -91 -39 -147 -64 -146 -66 -272 -102 -423
-121 -19 -2 39 -3 130 -1 145 2 179 6 280 33 118 30 330 119 330 138 0 37 -92
45 -170 15z"/>
<path d="M7117 12185 c102 -23 160 -53 208 -107 25 -28 50 -67 56 -89 l12 -39
63 0 64 0 -10 25 c-54 141 -168 210 -364 220 l-91 5 62 -15z"/>
<path d="M18415 12193 c6 -5 33 -15 60 -22 139 -35 285 -150 353 -278 l33 -63
60 0 60 0 -33 62 c-67 127 -198 235 -334 278 -68 21 -215 38 -199 23z"/>
<path d="M23198 12184 c134 -29 215 -87 253 -179 l23 -55 59 0 c56 0 58 1 52
23 -13 41 -54 105 -87 133 -69 58 -194 95 -313 93 l-50 -1 63 -14z"/>
<path d="M9680 12125 l0 -55 60 0 60 0 0 55 0 55 -60 0 -60 0 0 -55z"/>
<path d="M11757 12170 c116 -25 212 -100 259 -203 57 -125 30 -273 -69 -376
-45 -46 -146 -101 -187 -101 -60 -1 -54 -12 127 -243 l176 -227 59 0 c32 0 58
2 58 3 0 2 -79 105 -175 228 l-175 224 65 16 c114 27 212 114 251 221 23 61
23 171 0 236 -26 75 -107 161 -188 197 -52 24 -79 29 -153 31 -74 3 -82 2 -48
-6z"/>
<path d="M13621 12172 c35 -89 395 -922 399 -922 4 0 19 29 33 65 l27 66 -169
397 -169 397 -62 3 c-35 2 -60 -1 -59 -6z"/>
<path d="M14311 11640 c-127 -296 -231 -543 -231 -547 0 -20 54 -133 61 -126
5 6 489 1129 516 1201 4 9 -11 12 -55 12 l-60 0 -231 -540z"/>
<path d="M16180 11600 l0 -580 60 0 60 0 0 580 0 580 -60 0 -60 0 0 -580z"/>
<path d="M21100 12125 l0 -55 60 0 60 0 0 55 0 55 -60 0 -60 0 0 -55z"/>
<path d="M6881 12081 c-100 -35 -141 -86 -141 -179 0 -121 54 -161 316 -237
249 -72 321 -113 368 -207 31 -63 35 -158 9 -234 -35 -104 -154 -189 -296
-213 l-52 -9 66 -1 c177 -3 329 72 391 192 33 65 37 187 8 255 -43 100 -123
147 -368 218 -191 55 -256 86 -295 139 -26 36 -28 46 -25 105 5 94 51 147 155
175 l48 13 -65 1 c-39 0 -87 -7 -119 -18z"/>
<path d="M22968 12086 c-149 -40 -207 -207 -106 -303 49 -46 100 -68 275 -119
239 -69 324 -117 367 -209 40 -83 28 -215 -26 -295 -49 -73 -148 -129 -266
-150 -37 -7 -28 -8 48 -5 173 6 294 71 355 190 26 51 30 69 30 139 -1 173 -89
249 -385 331 -227 63 -310 114 -326 200 -20 106 48 195 173 224 35 8 33 9 -27
9 -36 1 -86 -5 -112 -12z"/>
<path d="M18221 12064 c-160 -43 -296 -176 -336 -329 -32 -126 -13 -282 48
-384 41 -69 132 -152 200 -184 58 -28 167 -51 213 -45 25 3 22 6 -28 21 -122
37 -254 158 -300 277 -33 85 -37 244 -8 329 26 79 78 159 134 207 40 36 168
104 193 104 7 0 13 5 13 10 0 14 -66 11 -129 -6z"/>
<path d="M9112 11863 l3 -208 272 -3 272 -2 3 -53 3 -52 60 0 60 0 0 55 0 55
-277 3 -278 2 0 205 0 205 -60 0 -60 0 2 -207z"/>
<path d="M11430 11830 l0 -240 60 0 60 0 0 240 0 240 -60 0 -60 0 0 -240z"/>
<path d="M20530 11860 l0 -210 275 0 275 0 0 -55 0 -55 60 0 60 0 0 60 0 60
-275 0 -275 0 0 205 0 205 -60 0 -60 0 0 -210z"/>
<path d="M9117 11543 c-4 -3 -7 -98 -7 -210 l0 -203 60 0 59 0 3 210 3 210
-56 0 c-31 0 -59 -3 -62 -7z"/>
<path d="M20530 11340 l0 -210 60 0 60 0 0 210 0 210 -60 0 -60 0 0 -210z"/>
<path d="M11430 11250 l0 -230 60 0 60 0 0 230 0 230 -60 0 -60 0 0 -230z"/>
<path d="M18857 11358 c-8 -13 -29 -49 -48 -82 -68 -116 -217 -224 -356 -256
-29 -7 -53 -14 -53 -17 0 -10 148 7 202 23 29 9 80 30 113 46 80 41 203 164
238 240 15 31 27 59 27 62 0 3 -25 6 -55 6 -46 0 -57 -4 -68 -22z"/>
<path d="M6725 11268 c15 -50 56 -98 105 -123 49 -25 152 -45 220 -44 l35 1
-35 10 c-119 34 -182 79 -198 142 -8 30 -10 31 -71 34 -61 3 -63 2 -56 -20z"/>
<path d="M22800 11280 c0 -25 43 -91 74 -115 46 -35 104 -52 202 -59 l79 -6
-55 19 c-107 35 -159 78 -175 144 -7 26 -10 27 -66 27 -34 0 -59 -4 -59 -10z"/>
<path d="M9680 11075 l0 -55 60 0 60 0 0 55 0 55 -60 0 -60 0 0 -55z"/>
<path d="M21100 11075 l0 -55 60 0 60 0 0 55 0 55 -60 0 -60 0 0 -55z"/>
</g>
</svg>
